<?xml version="1.0"?>
<!-- Generated by SVGo -->
<svg width="134.888mm" height="132.607mm"
     viewBox="0.000 0.000 134.888 132.607"
     xmlns="http://www.w3.org/2000/svg" 
     xmlns:xlink="http://www.w3.org/1999/xlink">
<polygon points="110.444,74.999 129.888,85.369 129.888,87.988 107.664,127.607 5.000,127.607 5.000,12.391 110.444,12.391" style="fill:none;stroke-width:0.050000mm;stroke:blue"/>
<polygon points="7.021,123.633 6.588,123.853 6.246,124.196 6.025,124.628 5.949,125.107 6.025,125.586 6.246,126.018 6.588,126.361 7.021,126.581 7.499,126.657 7.978,126.581 8.411,126.361 8.753,126.018 8.974,125.586 9.050,125.107 8.974,124.628 8.753,124.196 8.411,123.853 7.978,123.633 7.500,123.557" style="fill:none;stroke-width:0.050000mm;stroke:blue"/>
<polygon points="104.322,123.453 104.201,123.468 104.082,123.491 103.965,123.524 103.851,123.567 103.740,123.618 103.634,123.677 103.533,123.745 103.437,123.820 103.348,123.903 103.265,123.992 103.190,124.088 103.122,124.189 103.063,124.295 103.012,124.405 102.970,124.520 102.937,124.637 102.913,124.756 102.899,124.877 102.894,124.999 102.899,125.120 102.913,125.241 102.937,125.360 102.970,125.478 103.012,125.592 103.063,125.702 103.122,125.808 103.190,125.910 103.265,126.005 103.348,126.095 103.437,126.177 103.533,126.253 103.634,126.320 103.740,126.380 103.851,126.431 103.965,126.473 104.082,126.506 104.201,126.530 104.322,126.544 104.444,126.549 104.566,126.544 104.686,126.530 104.806,126.506 104.923,126.473 105.037,126.431 105.148,126.380 105.254,126.320 105.355,126.253 105.451,126.177 105.540,126.095 105.623,126.005 105.698,125.910 105.766,125.808 105.825,125.702 105.876,125.592 105.918,125.478 105.951,125.360 105.975,125.241 105.989,125.120 105.994,124.999 105.989,124.877 105.975,124.756 105.951,124.637 105.918,124.520 105.876,124.405 105.825,124.295 105.766,124.189 105.698,124.088 105.623,123.992 105.540,123.903 105.451,123.820 105.355,123.745 105.254,123.677 105.148,123.618 105.037,123.567 104.923,123.524 104.806,123.491 104.686,123.468 104.566,123.453 104.444,123.449" style="fill:none;stroke-width:0.050000mm;stroke:blue"/>
<polygon points="107.322,13.453 107.201,13.468 107.082,13.491 106.965,13.524 106.851,13.567 106.740,13.618 106.634,13.677 106.533,13.745 106.437,13.820 106.348,13.903 106.265,13.992 106.190,14.088 106.122,14.189 106.063,14.295 106.012,14.405 105.970,14.520 105.937,14.637 105.913,14.756 105.899,14.877 105.894,14.999 105.899,15.120 105.913,15.241 105.937,15.360 105.970,15.478 106.012,15.592 106.063,15.702 106.122,15.808 106.190,15.910 106.265,16.005 106.348,16.095 106.437,16.177 106.533,16.253 106.634,16.320 106.740,16.380 106.851,16.431 106.965,16.473 107.082,16.506 107.201,16.530 107.322,16.544 107.444,16.549 107.566,16.544 107.686,16.530 107.806,16.506 107.923,16.473 108.037,16.431 108.148,16.380 108.254,16.320 108.355,16.253 108.451,16.177 108.540,16.095 108.623,16.005 108.698,15.910 108.766,15.808 108.825,15.702 108.876,15.592 108.918,15.478 108.951,15.360 108.975,15.241 108.989,15.120 108.994,14.999 108.989,14.877 108.975,14.756 108.951,14.637 108.918,14.520 108.876,14.405 108.825,14.295 108.766,14.189 108.698,14.088 108.623,13.992 108.540,13.903 108.451,13.820 108.355,13.745 108.254,13.677 108.148,13.618 108.037,13.567 107.923,13.524 107.806,13.491 107.686,13.468 107.566,13.453 107.444,13.449" style="fill:none;stroke-width:0.050000mm;stroke:blue"/>
<polygon points="7.021,13.416 6.588,13.637 6.246,13.979 6.025,14.412 5.949,14.891 6.025,15.369 6.246,15.802 6.588,16.144 7.021,16.365 7.499,16.441 7.978,16.365 8.411,16.144 8.753,15.802 8.974,15.369 9.050,14.891 8.974,14.412 8.753,13.979 8.411,13.637 7.978,13.416 7.500,13.341" style="fill:none;stroke-width:0.050000mm;stroke:blue"/>
</svg>
