<?xml version="1.0"?>
<!-- Generated by SVGo -->
<svg width="134.888mm" height="132.607mm"
     viewBox="0.000 0.000 134.888 132.607"
     xmlns="http://www.w3.org/2000/svg" 
     xmlns:xlink="http://www.w3.org/1999/xlink">
<polygon points="110.444,74.999 129.888,85.369 129.888,87.988 107.664,127.607 5.000,127.607 5.000,12.391 110.444,12.391" style="fill:none;stroke-width:0.050000mm;stroke:blue"/>
<polygon points="7.021,123.633 6.588,123.853 6.246,124.196 6.025,124.628 5.949,125.107 6.025,125.586 6.246,126.018 6.588,126.361 7.021,126.581 7.499,126.657 7.978,126.581 8.411,126.361 8.753,126.018 8.974,125.586 9.050,125.107 8.974,124.628 8.753,124.196 8.411,123.853 7.978,123.633 7.500,123.557" style="fill:none;stroke-width:0.050000mm;stroke:blue"/>
<polygon points="104.322,123.453 104.201,123.468 104.082,123.491 103.965,123.524 103.851,123.567 103.740,123.618 103.634,123.677 103.533,123.745 103.437,123.820 103.348,123.903 103.265,123.992 103.190,124.088 103.122,124.189 103.063,124.295 103.012,124.405 102.970,124.520 102.937,124.637 102.913,124.756 102.899,124.877 102.894,124.999 102.899,125.120 102.913,125.241 102.937,125.360 102.970,125.478 103.012,125.592 103.063,125.702 103.122,125.808 103.190,125.910 103.265,126.005 103.348,126.095 103.437,126.177 103.533,126.253 103.634,126.320 103.740,126.380 103.851,126.431 103.965,126.473 104.082,126.506 104.201,126.530 104.322,126.544 104.444,126.549 104.566,126.544 104.686,126.530 104.806,126.506 104.923,126.473 105.037,126.431 105.148,126.380 105.254,126.320 105.355,126.253 105.451,126.177 105.540,126.095 105.623,126.005 105.698,125.910 105.766,125.808 105.825,125.702 105.876,125.592 105.918,125.478 105.951,125.360 105.975,125.241 105.989,125.120 105.994,124.999 105.989,124.877 105.975,124.756 105.951,124.637 105.918,124.520 105.876,124.405 105.825,124.295 105.766,124.189 105.698,124.088 105.623,123.992 105.540,123.903 105.451,123.820 105.355,123.745 105.254,123.677 105.148,123.618 105.037,123.567 104.923,123.524 104.806,123.491 104.686,123.468 104.566,123.453 104.444,123.449" style="fill:none;stroke-width:0.050000mm;stroke:blue"/>
<polygon points="106.608,89.345 105.742,88.845 98.742,100.969 99.608,101.469 99.208,102.162 101.892,103.712 102.292,103.019 107.315,105.919 106.915,106.612 109.600,108.162 110.000,107.469 110.866,107.969 117.866,95.845 117.000,95.345 117.400,94.652 114.715,93.102 114.315,93.795 109.292,90.895 109.692,90.202 107.008,88.652" style="fill:none;stroke-width:0.050000mm;stroke:blue"/>
<polygon points="80.399,88.743 79.626,88.535 78.823,91.530 79.596,91.737 78.095,97.339 77.322,97.132 76.520,100.127 77.293,100.334 77.034,101.300 90.557,104.923 90.816,103.957 91.588,104.164 92.391,101.170 91.618,100.963 93.119,95.360 93.892,95.567 94.694,92.573 93.921,92.366 94.180,91.400 80.657,87.777" style="fill:none;stroke-width:0.050000mm;stroke:blue"/>
<polygon points="57.864,86.638 57.864,87.638 57.064,87.638 57.064,90.738 57.864,90.738 57.864,96.538 57.064,96.538 57.064,99.638 57.864,99.638 57.864,100.638 71.864,100.638 71.864,99.638 72.664,99.638 72.664,96.538 71.864,96.538 71.864,90.738 72.664,90.738 72.664,87.638 71.864,87.638 71.864,86.638" style="fill:none;stroke-width:0.050000mm;stroke:blue"/>
<polygon points="12.524,70.255 12.524,71.255 11.724,71.255 11.724,74.355 12.524,74.355 12.524,80.155 11.724,80.155 11.724,83.255 12.524,83.255 12.524,84.255 26.525,84.255 26.525,83.255 27.325,83.255 27.325,80.155 26.525,80.155 26.525,74.355 27.325,74.355 27.325,71.255 26.525,71.255 26.525,70.255" style="fill:none;stroke-width:0.050000mm;stroke:blue"/>
<polygon points="88.725,67.778 88.725,68.778 87.925,68.778 87.925,71.877 88.725,71.877 88.725,77.678 87.925,77.678 87.925,80.778 88.725,80.778 88.725,81.778 102.725,81.778 102.725,80.778 103.525,80.778 103.525,77.678 102.725,77.678 102.725,71.877 103.525,71.877 103.525,68.778 102.725,68.778 102.725,67.778" style="fill:none;stroke-width:0.050000mm;stroke:blue"/>
<polygon points="31.575,65.492 31.575,66.492 30.775,66.492 30.775,69.592 31.575,69.592 31.575,75.392 30.775,75.392 30.775,78.492 31.575,78.492 31.575,79.492 45.575,79.492 45.575,78.492 46.375,78.492 46.375,75.392 45.575,75.392 45.575,69.592 46.375,69.592 46.375,66.492 45.575,66.492 45.575,65.492" style="fill:none;stroke-width:0.050000mm;stroke:blue"/>
<polygon points="69.675,65.492 69.675,66.492 68.875,66.492 68.875,69.592 69.675,69.592 69.675,75.392 68.875,75.392 68.875,78.492 69.675,78.492 69.675,79.492 83.675,79.492 83.675,78.492 84.475,78.492 84.475,75.392 83.675,75.392 83.675,69.592 84.475,69.592 84.475,66.492 83.675,66.492 83.675,65.492" style="fill:none;stroke-width:0.050000mm;stroke:blue"/>
<polygon points="50.625,63.016 50.625,64.016 49.825,64.016 49.825,67.116 50.625,67.116 50.625,72.916 49.825,72.916 49.825,76.016 50.625,76.016 50.625,77.016 64.625,77.016 64.625,76.016 65.425,76.016 65.425,72.916 64.625,72.916 64.625,67.116 65.425,67.116 65.425,64.016 64.625,64.016 64.625,63.016" style="fill:none;stroke-width:0.050000mm;stroke:blue"/>
<polygon points="12.524,51.205 12.524,52.205 11.724,52.205 11.724,55.305 12.524,55.305 12.524,61.105 11.724,61.105 11.724,64.205 12.524,64.205 12.524,65.205 26.525,65.205 26.525,64.205 27.325,64.205 27.325,61.105 26.525,61.105 26.525,55.305 27.325,55.305 27.325,52.205 26.525,52.205 26.525,51.205" style="fill:none;stroke-width:0.050000mm;stroke:blue"/>
<polygon points="88.725,48.728 88.725,49.728 87.925,49.728 87.925,52.828 88.725,52.828 88.725,58.628 87.925,58.628 87.925,61.728 88.725,61.728 88.725,62.728 102.725,62.728 102.725,61.728 103.525,61.728 103.525,58.628 102.725,58.628 102.725,52.828 103.525,52.828 103.525,49.728 102.725,49.728 102.725,48.728" style="fill:none;stroke-width:0.050000mm;stroke:blue"/>
<polygon points="31.575,46.442 31.575,47.442 30.775,47.442 30.775,50.542 31.575,50.542 31.575,56.342 30.775,56.342 30.775,59.442 31.575,59.442 31.575,60.442 45.575,60.442 45.575,59.442 46.375,59.442 46.375,56.342 45.575,56.342 45.575,50.542 46.375,50.542 46.375,47.442 45.575,47.442 45.575,46.442" style="fill:none;stroke-width:0.050000mm;stroke:blue"/>
<polygon points="69.675,46.442 69.675,47.442 68.875,47.442 68.875,50.542 69.675,50.542 69.675,56.342 68.875,56.342 68.875,59.442 69.675,59.442 69.675,60.442 83.675,60.442 83.675,59.442 84.475,59.442 84.475,56.342 83.675,56.342 83.675,50.542 84.475,50.542 84.475,47.442 83.675,47.442 83.675,46.442" style="fill:none;stroke-width:0.050000mm;stroke:blue"/>
<polygon points="50.625,43.966 50.625,44.966 49.825,44.966 49.825,48.066 50.625,48.066 50.625,53.866 49.825,53.866 49.825,56.966 50.625,56.966 50.625,57.966 64.625,57.966 64.625,56.966 65.425,56.966 65.425,53.866 64.625,53.866 64.625,48.066 65.425,48.066 65.425,44.966 64.625,44.966 64.625,43.966" style="fill:none;stroke-width:0.050000mm;stroke:blue"/>
<polygon points="12.524,32.155 12.524,33.155 11.724,33.155 11.724,36.255 12.524,36.255 12.524,42.055 11.724,42.055 11.724,45.155 12.524,45.155 12.524,46.155 26.525,46.155 26.525,45.155 27.325,45.155 27.325,42.055 26.525,42.055 26.525,36.255 27.325,36.255 27.325,33.155 26.525,33.155 26.525,32.155" style="fill:none;stroke-width:0.050000mm;stroke:blue"/>
<polygon points="88.725,29.678 88.725,30.678 87.925,30.678 87.925,33.778 88.725,33.778 88.725,39.577 87.925,39.577 87.925,42.678 88.725,42.678 88.725,43.678 102.725,43.678 102.725,42.678 103.525,42.678 103.525,39.577 102.725,39.577 102.725,33.778 103.525,33.778 103.525,30.678 102.725,30.678 102.725,29.678" style="fill:none;stroke-width:0.050000mm;stroke:blue"/>
<polygon points="31.575,27.392 31.575,28.392 30.775,28.392 30.775,31.492 31.575,31.492 31.575,37.292 30.775,37.292 30.775,40.392 31.575,40.392 31.575,41.392 45.575,41.392 45.575,40.392 46.375,40.392 46.375,37.292 45.575,37.292 45.575,31.492 46.375,31.492 46.375,28.392 45.575,28.392 45.575,27.392" style="fill:none;stroke-width:0.050000mm;stroke:blue"/>
<polygon points="69.675,27.392 69.675,28.392 68.875,28.392 68.875,31.492 69.675,31.492 69.675,37.292 68.875,37.292 68.875,40.392 69.675,40.392 69.675,41.392 83.675,41.392 83.675,40.392 84.475,40.392 84.475,37.292 83.675,37.292 83.675,31.492 84.475,31.492 84.475,28.392 83.675,28.392 83.675,27.392" style="fill:none;stroke-width:0.050000mm;stroke:blue"/>
<polygon points="50.625,24.916 50.625,25.916 49.825,25.916 49.825,29.016 50.625,29.016 50.625,34.815 49.825,34.815 49.825,37.916 50.625,37.916 50.625,38.916 64.625,38.916 64.625,37.916 65.425,37.916 65.425,34.815 64.625,34.815 64.625,29.016 65.425,29.016 65.425,25.916 64.625,25.916 64.625,24.916" style="fill:none;stroke-width:0.050000mm;stroke:blue"/>
<polygon points="107.322,13.453 107.201,13.468 107.082,13.491 106.965,13.524 106.851,13.567 106.740,13.618 106.634,13.677 106.533,13.745 106.437,13.820 106.348,13.903 106.265,13.992 106.190,14.088 106.122,14.189 106.063,14.295 106.012,14.405 105.970,14.520 105.937,14.637 105.913,14.756 105.899,14.877 105.894,14.999 105.899,15.120 105.913,15.241 105.937,15.360 105.970,15.478 106.012,15.592 106.063,15.702 106.122,15.808 106.190,15.910 106.265,16.005 106.348,16.095 106.437,16.177 106.533,16.253 106.634,16.320 106.740,16.380 106.851,16.431 106.965,16.473 107.082,16.506 107.201,16.530 107.322,16.544 107.444,16.549 107.566,16.544 107.686,16.530 107.806,16.506 107.923,16.473 108.037,16.431 108.148,16.380 108.254,16.320 108.355,16.253 108.451,16.177 108.540,16.095 108.623,16.005 108.698,15.910 108.766,15.808 108.825,15.702 108.876,15.592 108.918,15.478 108.951,15.360 108.975,15.241 108.989,15.120 108.994,14.999 108.989,14.877 108.975,14.756 108.951,14.637 108.918,14.520 108.876,14.405 108.825,14.295 108.766,14.189 108.698,14.088 108.623,13.992 108.540,13.903 108.451,13.820 108.355,13.745 108.254,13.677 108.148,13.618 108.037,13.567 107.923,13.524 107.806,13.491 107.686,13.468 107.566,13.453 107.444,13.449" style="fill:none;stroke-width:0.050000mm;stroke:blue"/>
<polygon points="7.021,13.416 6.588,13.637 6.246,13.979 6.025,14.412 5.949,14.891 6.025,15.369 6.246,15.802 6.588,16.144 7.021,16.365 7.499,16.441 7.978,16.365 8.411,16.144 8.753,15.802 8.974,15.369 9.050,14.891 8.974,14.412 8.753,13.979 8.411,13.637 7.978,13.416 7.500,13.341" style="fill:none;stroke-width:0.050000mm;stroke:blue"/>
</svg>
